<?xml version="1.0" encoding="UTF-8"?>
<svg xmlns="http://www.w3.org/2000/svg" xmlns:xlink="http://www.w3.org/1999/xlink" viewBox="0 0 500 500">
  <defs>
    <linearGradient id="b" data-name="Gradiente sem nome 6" x1="250" y1="500" x2="250" y2="0" gradientUnits="userSpaceOnUse">
      <stop offset="0" stop-color="#e8e8e9"/>
      <stop offset="1" stop-color="#fff"/>
    </linearGradient>
  </defs>
  <g id="a" data-name="BACKGROUND">
    <rect width="500" height="500" style="fill: url(#b);"/>
  </g>
  <g id="c" data-name="OBJECTS">
    <g>
      <g>
        <g>
          <rect x="90.5" y="73.94" width="17.82" height="91.34" style="fill: #ffd994;"/>
          <rect x="113.67" y="73.94" width="17.82" height="91.34" style="fill: #ffd994;"/>
          <rect x="136.84" y="73.94" width="17.82" height="91.34" style="fill: #ffd994;"/>
          <rect x="160.01" y="73.94" width="17.82" height="91.34" style="fill: #ffd994;"/>
          <rect x="183.17" y="73.94" width="17.82" height="91.34" style="fill: #ffd994;"/>
          <rect x="206.34" y="73.94" width="17.82" height="91.34" style="fill: #ffd994;"/>
          <rect x="229.51" y="73.94" width="17.82" height="91.34" style="fill: #ffd994;"/>
          <rect x="252.67" y="73.94" width="17.82" height="91.34" style="fill: #ffd994;"/>
          <rect x="275.84" y="73.94" width="17.82" height="91.34" style="fill: #ffd994;"/>
          <rect x="299.01" y="73.94" width="17.82" height="91.34" style="fill: #ffd994;"/>
          <rect x="322.18" y="73.94" width="17.82" height="91.34" style="fill: #ffd994;"/>
          <rect x="345.34" y="73.94" width="17.82" height="91.34" style="fill: #ffd994;"/>
          <rect x="368.51" y="73.94" width="17.82" height="91.34" style="fill: #ffd994;"/>
          <rect x="391.68" y="73.94" width="17.82" height="91.34" style="fill: #ffd994;"/>
        </g>
        <g>
          <rect x="90.5" y="73.94" width="17.82" height="9.51" style="fill: #8e3948;"/>
          <rect x="113.67" y="73.94" width="17.82" height="9.51" style="fill: #8e3948;"/>
          <rect x="136.84" y="73.94" width="17.82" height="9.51" style="fill: #8e3948;"/>
          <rect x="160.01" y="73.94" width="17.82" height="9.51" style="fill: #8e3948;"/>
          <rect x="183.17" y="73.94" width="17.82" height="9.51" style="fill: #8e3948;"/>
          <rect x="206.34" y="73.94" width="17.82" height="9.51" style="fill: #8e3948;"/>
          <rect x="229.51" y="73.94" width="17.82" height="9.51" style="fill: #8e3948;"/>
          <rect x="252.67" y="73.94" width="17.82" height="9.51" style="fill: #8e3948;"/>
          <rect x="275.84" y="73.94" width="17.82" height="9.51" style="fill: #8e3948;"/>
          <rect x="299.01" y="73.94" width="17.82" height="9.51" style="fill: #8e3948;"/>
          <rect x="322.18" y="73.94" width="17.82" height="9.51" style="fill: #8e3948;"/>
          <rect x="345.34" y="73.94" width="17.82" height="9.51" style="fill: #8e3948;"/>
          <rect x="368.51" y="73.94" width="17.82" height="9.51" style="fill: #8e3948;"/>
          <rect x="391.68" y="73.94" width="17.82" height="9.51" style="fill: #8e3948;"/>
        </g>
      </g>
      <path d="m157.56,457.59h-26.27c-6.55,0-11.95-3.65-12.3-8.31l-3.91-51.58c-.18-2.41,2.51-4.44,5.9-4.44h46.89c3.39,0,6.09,2.03,5.9,4.44l-3.91,51.58c-.35,4.66-5.76,8.31-12.3,8.31Z" style="fill: #8e3948;"/>
      <g>
        <rect x="404.45" y="206.27" width="10.1" height="4.13" style="fill: #c1380c;"/>
        <path d="m406.57,202.13h5.86c1.17,0,2.12.95,2.12,2.12v2.01h-10.1v-2.01c0-1.17.95-2.12,2.12-2.12Z" style="fill: #ff6a66;"/>
        <path d="m414.17,248.98h-9.35c-2.53,0-4.49-2.2-4.2-4.71.57-4.91,1.35-12.81,1.35-19.61s-.78-6.7-1.35-11.61c-.29-2.51,1.67-4.71,4.2-4.71h9.35c2.53,0,4.49,2.2,4.2,4.71-.57,4.91-1.35,4.81-1.35,11.61s.78,14.7,1.35,19.61c.29,2.51-1.67,4.71-4.2,4.71Z" style="fill: #ff6a66;"/>
      </g>
      <g>
        <path d="m199.36,328.93l-14.98,128.66h0c4.38,0,8.16-3.04,9.1-7.32l22.41-101.71h34.1v-19.64h-50.64Z" style="fill: #ffd994;"/>
        <path d="m300.64,328.93l14.98,128.66h0c-4.38,0-8.16-3.04-9.1-7.32l-22.41-101.71h-34.1v-19.64h50.64Z" style="fill: #e5af70;"/>
        <path d="m304.31,328.93h-108.61c-2.63,0-4.76-2.13-4.76-4.76h0c0-4.22,3.42-7.64,7.64-7.64h102.86c4.22,0,7.64,3.42,7.64,7.64h0c0,2.63-2.13,4.76-4.76,4.76Z" style="fill: #463840;"/>
        <g>
          <polygon points="286.93 275.82 280.14 316.52 286.93 316.52 294.46 268.66 286.93 275.82" style="fill: #ffd994;"/>
          <polygon points="286.93 316.52 292.58 316.52 297.85 262.89 294.46 268.66 286.93 316.52" style="fill: #e5af70;"/>
        </g>
        <g>
          <polygon points="213.07 275.82 219.86 316.52 213.07 316.52 205.54 268.66 213.07 275.82" style="fill: #ffd994;"/>
          <polygon points="213.07 316.52 207.42 316.52 202.15 262.89 205.54 268.66 213.07 316.52" style="fill: #e5af70;"/>
        </g>
        <path d="m199.91,231.74h100.18c4.95,0,8.98,4.02,8.98,8.98h0c0,25.82-20.96,46.78-46.78,46.78h-24.58c-25.82,0-46.78-20.96-46.78-46.78h0c0-4.96,4.02-8.98,8.98-8.98Z" style="fill: #ffd994;"/>
      </g>
      <g>
        <g>
          <path d="m290.03,186.8c8.97,6.16,24.93,36,31.48,41.76,6.54,5.76,11.25,14.13,6.28,20.41h-19.89c-.26,0-22.29-34.64-22.29-34.64,0,0-3.36-6.97-2.05-14.3,1.31-7.33,6.47-13.23,6.47-13.23Z" style="fill: #78cfd8;"/>
          <path d="m303.97,229.87c4.97-1.05,13.61-.52,20.63,4.8l-19.33,10.38c-5.89-9.07-19.66-30.72-19.66-30.72,0,0-4.72-4.94,2.28-21.93,0,0-2.29,11.7.54,16.84,4.97,9.01,12.38,21.3,15.55,20.63Z" style="fill: #5ab3b7;"/>
        </g>
        <g>
          <path d="m214.03,186.8c-7.74,3.14-22.87,36-29.41,41.76-6.54,5.76-11.25,14.13-6.28,20.41h19.89c.26,0,23.57-36.58,23.57-36.58,0,0,2.07-5.03.77-12.36-1.31-7.33-8.54-13.23-8.54-13.23Z" style="fill: #78cfd8;"/>
          <path d="m202.16,229.87c-4.97-1.05-13.61-.52-20.63,4.8l19.33,10.38c5.89-9.07,20.94-32.66,20.94-32.66,0,0,2.97-3-4.02-19.99,0,0,2.75,11.7-.08,16.84-4.97,9.01-12.38,21.3-15.55,20.63Z" style="fill: #5ab3b7;"/>
        </g>
        <g>
          <path d="m292.05,316.16c9.52-8.87,4.04-26.69-1.08-36.41s-10.39-15.24-10.08-25.58l-53.21-1.25s-2.66,10.71-8.19,16.53c-5.53,5.82-22.15,17.78-20.83,32.03l93.39,14.68Z" style="fill: #1f2848;"/>
          <g>
            <path d="m233.75,440.42s-.02.06-.03.1c2.43.76,4.76.22,6.48-2.95,2.22-4.09,7.78-5.95,11.5-2.02-.16-.66-.27-1.33-.31-2.02-.14-2.02.51-6.68,1.55-12.81h-15.44c-.81,5.9-2.39,11.5-3.74,19.7Z" style="fill: #fc9a80;"/>
            <path d="m295.16,297.79c-4.26-12.03-20.47-16.46-33.44-11.8-12.97,4.66-18.7,15.3-23.22,21.89-7.79,11.35-2.33,34.83-2.33,48.42s-3.71,22.07,0,40.36c2.2,10.87,2.21,17.64,1.33,24.06h15.44c2.95-17.37,9.09-46.71,9.65-62.49.76-21.35,3.62-32.5,3.62-32.5,0,0,5.72-5.53,16.18-5.53s17.04-10.39,12.78-22.42Z" style="fill: #2f3767;"/>
            <path d="m273.5,321.65c-2.21-9.69-11.73-27.48-17.6-32.91-.04.02-.08.05-.12.07l-5.55,4.09c-5.45,4.9-8.85,10.77-11.74,14.98-5.7,8.3-4.31,28.47-3.15,37.82.62,2.13,1.42,4.34,2.47,6.62,5.93,12.96,15.38,18.7,22.09,28.97,1.39-8.73,2.45-16.91,2.67-23.05.76-21.35,3.62-32.5,3.62-32.5,0,0,2.54-2.44,7.31-4.08,0,0,0,0,0,0Z" style="fill: #1f2848;"/>
            <path d="m240.2,437.57c-1.72,3.17-4.05,3.71-6.48,2.95-3.02,10.89-.58,17.07-.58,17.07h30.49c.22,0,.42-.13.51-.34.53-1.31,1.91-6.17-4.54-10.82-3.14-2.26-6.79-6.22-7.9-10.88-3.71-3.93-9.28-2.07-11.5,2.02Z" style="fill: #1f2848;"/>
          </g>
          <path d="m259.01,293.97c-7.85-15.77-15.84-14.17-32.73-14.17s-27.71,8.45-27.62,21.68c.05,8.07,6.16,18.72,21.23,18.72h23.91l15.21-26.23Z" style="fill: #2f3767;"/>
          <g>
            <path d="m274,326.91c-5.41-15.24-9.04-20.44-14.99-32.93-3.62-7.61-9.09-12.49-15.21-12.29-17.07.55-13.77,21.54-10.66,23.84,4.98,3.69,2.28,41.04,18.5,59.23,8.73,9.79,14.4,19.86,17.77,28.38l12.58-5.67c-2.82-11.31-3.04-46.63-7.98-60.56Z" style="fill: #2f3767;"/>
            <path d="m307.43,429.39c-2.84-6.1-9.35-14.97-15.06-23.23-3.73.01-8.28,3.7-10.99,6.03-2.32,1.99-5.09.51-7.87-2.1,0,.13,0,.26,0,.38,0,8.36.74,11.55,3.93,14.99,3.2,3.44,3.63,11.04,11.8,13.76,8.85,2.95,23.1.74,18.19-9.83Z" style="fill: #1f2848;"/>
            <path d="m281.38,412.19c2.71-2.33,7.26-6.01,10.99-6.03-4.19-6.06-7.96-11.79-9.52-15.85-.32-.82-.6-1.79-.87-2.85l-12.58,5.67c2.8,7.08,4.02,13.08,4.1,16.95,2.78,2.61,5.55,4.1,7.87,2.1Z" style="fill: #fc9a80;"/>
          </g>
        </g>
        <path d="m241.32,178.72c-7.38,4.89-20.89,3.91-27.28,8.09,0,0,10.54,17.61,6.78,31.92-2.68,10.2-1.6,14.6,3.17,21.11,4.26,5.82,1.34,10.67,3.02,13.9,0,0,4.24,7.45,29.55,7.45,15.36,0,24.63-.31,25.43-6.84.21-1.7,1.32-7.03,2.05-9.29,6.41-19.93,6.21-15.82,2.35-32.88-3.97-17.55,5.67-23.94,3.49-25.86-3.63-3.2-16.84-2.84-24.72-6.95-7.87-4.11-23.85-.64-23.85-.64Z" style="fill: #78cfd8;"/>
        <g>
          <rect x="239.41" y="145.78" width="25.51" height="38.99" style="fill: #33252f;"/>
          <path d="m241.32,164.57v14.15s-4.51,2.67-5.11,6.09c-.6,3.43-.03,13.14,19.01,19.61,0,0,14.67-5.73,14.85-18.09.06-4.09-2.85-6.08-4.9-6.97-1.17-.51-1.95-1.64-1.95-2.91v-11.88h-21.89Z" style="fill: #fc9a80;"/>
          <path d="m263.21,164.57h-21.89v14.15s-4.51,2.67-5.11,6.09c-.34,1.92-.3,5.8,3.12,9.98,2.6-9.99,7.31-15.7,13.14-15.5,3.21.11,7.33-1.06,10.74-3.77v-10.95Z" style="fill: #d67363;"/>
          <path d="m268.32,146.36c1.71,13.71-2.07,24.94-10.44,25.7-8.38.76-19.04-4.38-21.32-19.61-2.28-15.23,7.09-23.47,14.73-23.23,6.06.19,15.35,3.62,17.03,17.13Z" style="fill: #fc9a80;"/>
          <path d="m260.35,122.37c-9.65-5.08-13.71,0-13.71,0-6.42,0-18.28,1.14-18.28,34.46v45.12l3.88-2.23c5.61-3.22,9.07-9.19,9.07-15.65v-36.38c5.18-.28,9.48-.5,13.01-.68.34-4.67.88-12.09.88-11.69s.94,7.15,1.56,11.57c2.06-.1,3.8-.19,5.27-.25l-.54-5.41,1.83,5.35c3.52-.16,4.99-.21,4.99-.21,1.11,8.92-.1,16.8-3.39,21.42,0,6.17,0,12.35,0,17,0,5.07,1.75,9.99,4.96,13.91l2.66,3.25v-47.78c0-7.23-1.33-26.08-12.18-31.79Z" style="fill: #33252f;"/>
        </g>
        <g>
          <path d="m176.27,242.95c1.73-13.62,22.74-12.82,29.03-8.11h31.08s-7.13,6.28,0,14.13h-58.04s-2.57-2.1-2.07-6.02Z" style="fill: #78cfd8;"/>
          <path d="m178.34,248.98h58.04c-1.24-1.36-2.04-2.68-2.53-3.92-44.32.07-57.58,1.24-57.58-2.1-.5,3.92,2.07,6.02,2.07,6.02Z" style="fill: #5ab3b7;"/>
          <g>
            <path d="m236.38,248.98c-7.13-7.85,0-14.13,0-14.13,3.47,0,9.49-3.33,12.1-3.1,2.62.22,11.84.75,12.6,3.1.75,2.36,1.34,5.76,0,7.59-1.34,1.83-11.29,4.97-13.64,4.97s-5.96-3.14-5.96-3.14c0,0-.19,4.71-5.1,4.71Z" style="fill: #fc9a80;"/>
            <path d="m240.55,242.95c-.11,2.29-3.2,2.1-6.7,2.1h0c.49,1.24,1.29,2.56,2.53,3.92,4.91,0,5.1-4.71,5.1-4.71,0,0,3.6,3.14,5.96,3.14.61,0,1.72-.21,3.06-.55-5.48,1.14-9.85-6.1-9.96-3.9Z" style="fill: #d67363;"/>
          </g>
        </g>
        <g>
          <path d="m329.85,242.95c-1.73-13.62-22.74-12.82-29.03-8.11h-10.4s7.13,6.28,0,14.13h37.36s2.57-2.1,2.07-6.02Z" style="fill: #78cfd8;"/>
          <g>
            <path d="m290.42,248.98c7.13-7.85,0-14.13,0-14.13-3.47,0-9.49-3.33-12.1-3.1-2.62.22-11.84.75-12.6,3.1-.75,2.36-1.34,5.76,0,7.59,1.34,1.83,11.29,4.97,13.64,4.97s5.96-3.14,5.96-3.14c0,0,.19,4.71,5.1,4.71Z" style="fill: #fc9a80;"/>
            <path d="m286.26,242.95c.11,2.29,3.2,2.1,6.7,2.1h0c-.49,1.24-1.29,2.56-2.53,3.92-4.91,0-5.1-4.71-5.1-4.71,0,0-3.6,3.14-5.96,3.14-.61,0-1.72-.21-3.06-.55,5.48,1.14,9.85-6.1,9.95-3.9Z" style="fill: #d67363;"/>
          </g>
        </g>
      </g>
      <path d="m326.81,248.98h-94.23c-1.08,0-1.95-.87-1.95-1.95h0c0-1.08.87-1.95,1.95-1.95h94.23c1.08,0,1.95.87,1.95,1.95h0c0,1.08-.87,1.95-1.95,1.95Z" style="fill: #e8e0e4;"/>
      <g>
        <path d="m327.08,245.05h33.18v3.93h-36.44v-.67c0-1.8,1.46-3.26,3.26-3.26Z" style="fill: #f1f1f1;"/>
        <rect x="291.54" y="153.42" width="101.49" height="81.73" rx="4.71" ry="4.71" style="fill: #f1f1f1;"/>
        <path d="m339.01,191.81l3.78,51.02c.25,3.32-2.38,6.15-5.71,6.15h-7.17,33.1c3.61,0,6.24-3.41,5.34-6.9l-13.03-50.26h-16.3Z" style="fill: #f1f1f1;"/>
        <path d="m339.92,191.81l3.78,51.02c.25,3.32-2.38,6.15-5.71,6.15h-7.17,33.1c3.61,0,6.24-3.41,5.34-6.9l-13.03-50.26h-16.3Z" style="fill: #e8e0e4;"/>
      </g>
      <g>
        <path d="m127.82,245.05h105.69c0,2.17-1.76,3.93-3.93,3.93h-97.84c-2.17,0-3.93-1.76-3.93-3.93h0Z" style="fill: #33252f;"/>
        <path d="m201.4,248.98h-69.91c-2.31,0-4.28-1.67-4.64-3.95l-8.4-51.92c-.35-2.19,1.34-4.18,3.56-4.18h69.91c2.31,0,4.28,1.67,4.64,3.95l8.4,51.92c.35,2.19-1.34,4.18-3.56,4.18Z" style="fill: #463840;"/>
      </g>
      <g>
        <rect x="106.97" y="265.25" width="286.06" height="24.67" style="fill: #ffd994;"/>
        <rect x="106.97" y="265.25" width="286.06" height="12.33" style="fill: #e5af70;"/>
        <rect x="69.38" y="248.98" width="361.23" height="16.27" style="fill: #ffd994;"/>
        <rect x="69.38" y="257.11" width="361.23" height="8.14" style="fill: #e5af70;"/>
        <path d="m106.97,289.92v167.67h0c3.26,0,5.99-2.45,6.35-5.69l17.73-161.98h-24.08Z" style="fill: #ffd994;"/>
        <path d="m393.03,289.92v167.67h0c-3.26,0-5.99-2.45-6.35-5.69l-17.73-161.98h24.08Z" style="fill: #ffd994;"/>
      </g>
      <g>
        <g>
          <path d="m184.25,187.21s-.51-.68-1.25-1.77c-.73-1.08-1.67-2.62-2.46-4.35-.79-1.71-1.43-3.58-1.97-4.98-.55-1.39-1.09-2.32-1.93-1.84-.7.39-1.09,2.31-.76,4.79.17,1.24.52,2.6,1.07,3.99.54,1.38,1.26,2.66,2.08,3.88,1.65,2.43,3.69,4.39,5.53,5.92,1.85,1.53,3.51,2.69,4.58,3.47,2.25,4.46,4.46,9.11,4.67,14.12.23,4.97-1.3,10-4.3,13.97l1.18.89c3.39-4.51,5.04-10.24,4.54-15.85-.24-2.82-1.06-5.52-2.08-8.05-1.03-2.54-2.27-4.94-3.47-7.31-.31-3.09.23-7.18,1.22-10.01.93-2.97,2.21-4.12,1.34-5.11-.51-.59-1.1-.8-1.78-.66-.67.14-1.38.69-1.95,1.48-.58.79-.99,1.79-1.21,2.62-.22.84-.28,1.47-.28,1.47,0,0-.09-.81-.12-1.98-.03-1.16.05-2.7.33-4.18.26-1.49.72-2.88,1.1-3.99.36-1.12.67-2.03.33-2.76-.33-.72-1.03-.88-2.03-.37-.98.5-2.19,1.75-2.99,3.57-.83,1.8-1.23,4.11-1.09,6.44.13,2.35.82,4.64,1.7,6.6Z" style="fill: #216d55;"/>
          <path d="m205.04,202.87s1.09-1.42,2.2-2.84c1.09-1.43,2.23-2.91,1.47-3.38-.63-.39-2.71,1.29-4.36,3.58-1.69,2.28-2.88,5.05-3.3,6.38-3.87,3.69-6.84,8.35-8.4,13.48l.75.23c1.62-5.28,4.76-10.05,8.86-13.76.75-.3,1.69-.46,2.6-.6.96-.09,1.89-.18,2.79-.19.44-.01.86-.04,1.24-.07.39-.01.75-.05,1.07-.1.62-.13,1.11-.31,1.35-.71.59-.96-.35-1.33-1.57-1.41-.59-.03-1.23.05-1.73.11-.5.06-.84.16-.84.16,0,0,.4-.2,1.04-.47.31-.14.67-.31,1.06-.49.4-.16.82-.34,1.25-.53,1.69-.76,3.47-1.46,3.55-2.32.03-.43-.28-.64-.84-.7-.56-.05-1.39.04-2.32.34-1.87.55-4.17,1.83-5.87,3.29Z" style="fill: #216d55;"/>
          <path d="m176.37,204.74s-1.75-.74-3.5-.9c-1.76-.2-3.4.15-3.38,1.04,0,.76,1.97.89,4.41,1.47,2.43.53,5.28,1.68,6.61,2.42,3.27,4.74,4.77,10.67,4.16,16.4l.85.09c.66-6.28-1.09-12.77-4.91-17.81-.5-1.76-1.03-4.22-2.03-6.33-.96-2.11-2.37-3.79-3.67-3.9-1.57-.09-.93,1.13-.14,2.38.82,1.26,1.78,2.62,1.78,2.62,0,0-1.54-1.57-3.55-2.68-1.98-1.16-4.34-1.73-4.9-1.01-.57.73.63,1.54,2.36,2.53,1.74,1,4.01,2.31,5.92,3.68Z" style="fill: #216d55;"/>
          <path d="m185.61,204.34s.13-1.11.27-2.31c.13-1.16.27-2.36-.3-2.37-.48,0-1.08,1.62-1.23,3.45-.18,1.83.09,3.77.31,4.64-.9,3.34-.95,6.93-.04,10.28l.49-.13c-.93-3.45-.82-7.16.2-10.58.65-.83,1.76-1.63,2.72-2.24.94-.63,1.72-1.11,1.73-1.7.01-.73-.64-.62-1.34-.26-.34.18-.67.43-.92.64-.26.2-.41.37-.41.37,0,0,.65-.98,1.36-1.94.69-.98,1.45-1.96,1.2-2.46-.23-.49-1.02-.09-1.88.85-.86.93-1.71,2.4-2.16,3.78Z" style="fill: #216d55;"/>
          <path d="m178.31,213.46s-.93-.17-1.81-.06c-.88.1-1.64.45-1.53.88.08.37,1.06.22,2.31.23,1.24,0,2.76.24,3.49.46,2.11,1.96,3.49,4.69,3.8,7.55l.42-.05c-.35-3.13-1.91-6.12-4.32-8.16-.43-.8-.96-1.94-1.68-2.87-.7-.93-1.57-1.59-2.22-1.5-.77.13-.33.65.19,1.18.59.55,1.15,1.09,1.15,1.09,0,0-.92-.6-2.03-.92-1.09-.35-2.31-.36-2.5.05-.2.42.48.68,1.43.97.96.3,2.21.69,3.29,1.14Z" style="fill: #216d55;"/>
          <path d="m199.75,192.09s.49-1.44,1-2.91c.49-1.46,1-2.98.26-3.15-.62-.14-1.84,1.79-2.55,4.1-.75,2.31-.94,4.89-.91,6.09-2.12,4.06-3.24,8.66-3.09,13.25l.67-.02c-.15-4.73,1.08-9.47,3.38-13.6.52-.45,1.24-.83,1.95-1.2.75-.34,1.48-.67,2.21-.92.7-.28,1.34-.52,1.82-.78.47-.28.81-.56.9-.95.22-.94-.65-.98-1.66-.71-.49.14-.99.38-1.37.57-.39.18-.63.36-.63.36,0,0,.27-.28.71-.67.21-.2.46-.44.73-.69.28-.24.57-.5.86-.78,1.17-1.08,2.42-2.14,2.24-2.85-.16-.69-1.3-.4-2.66.58-1.37.96-2.88,2.63-3.85,4.29Z" style="fill: #216d55;"/>
          <path d="m190.79,210.64s-.59-.46-1.25-.73c-.66-.27-1.32-.36-1.42-.01-.09.29.66.6,1.55,1.1.88.48,1.89,1.2,2.34,1.6.88,2.11,1.16,4.48.72,6.73l.33.07c.48-2.46.12-5.03-.9-7.3-.04-.72,0-1.71-.15-2.6-.13-.9-.46-1.68-.94-1.86-.57-.22-.49.33-.33.88.15.57.38,1.19.38,1.19,0,0-.41-.76-1.04-1.41-.61-.66-1.42-1.17-1.72-.97-.31.21.04.66.57,1.25.54.59,1.27,1.35,1.86,2.07Z" style="fill: #216d55;"/>
          <path d="m202.31,211.67s.57-.99,1.22-1.96c.63-.98,1.34-1.97.83-2.24-.43-.23-1.76.96-2.68,2.57-.96,1.6-1.41,3.51-1.5,4.39-1.95,2.8-2.85,6.31-2.49,9.7l.49-.05c-.36-3.46.62-7.06,2.74-9.83.88-.54,2.18-.82,3.25-.95,1.07-.16,1.92-.2,2.17-.71.32-.6-.29-.84-1.04-.82-.74,0-1.58.3-1.58.3,0,0,.97-.59,2-1.11,1.02-.55,2.13-1,2.16-1.54.05-.53-.83-.59-2.02-.17-1.18.41-2.6,1.36-3.55,2.43Z" style="fill: #216d55;"/>
        </g>
        <g>
          <rect x="185.25" y="217.89" width="22.71" height="31.09" style="fill: #8e3948;"/>
          <rect x="173.9" y="217.89" width="22.71" height="31.09" style="fill: #c1380c;"/>
        </g>
      </g>
      <g>
        <path d="m144.37,108.42c-3.17-2.94-8.83-2.03-8.83,2.62v4.51c0,1.48-.44,2.93-1.27,4.16l-3.39,5.06c-.59.88-.9,1.91-.9,2.97v4.76" style="fill: none; stroke: #c1380c; stroke-miterlimit: 10;"/>
        <path d="m91.97,167.28l7.35-4.49c2.01-1.23,2.81-3.74,1.87-5.9l-2.16-5" style="fill: none; stroke: #c1380c; stroke-miterlimit: 10;"/>
        <path d="m121.06,245.63h-4v-14.54c0-2.82-.58-5.56-1.74-8.14l-28.56-63.86,3.65-1.63,28.56,63.86c1.38,3.1,2.09,6.38,2.09,9.77v14.54Z" style="fill: #ff6a66;"/>
        <path d="m114.3,238.07h9.52c2.35,0,4.26,1.91,4.26,4.26v4.15h-18.04v-4.15c0-2.35,1.91-4.26,4.26-4.26Z" style="fill: #c1380c;"/>
        <path d="m96.34,242.28h45.44c.48,0,.88.39.88.88v4.94c0,.48-.39.88-.88.88h-45.44c-.48,0-.88-.39-.88-.88v-4.94c0-.48.39-.88.88-.88Z" style="fill: #ff6a66;"/>
        <rect x="83.42" y="137.88" width="70.6" height="4" transform="translate(-55.5 82.38) rotate(-31.41)" style="fill: #ff6a66;"/>
        <path d="m91.97,158.27c0,1.87-1.51,3.38-3.38,3.38s-3.38-1.51-3.38-3.38,1.51-3.38,3.38-3.38,3.38,1.51,3.38,3.38Z" style="fill: #c1380c;"/>
        <circle cx="139.84" cy="127.11" r="3.38" style="fill: #c1380c;"/>
        <g>
          <path d="m160.55,117.99l-8.55-7.69c-.37-.34-.94-.35-1.32-.03l-5.65,4.67c-.39.32-.48.87-.22,1.3l5.95,9.85c.43.71.58,1.54.45,2.36-1.19,7.01,1.91,16.75,8.65,25.62.75.99,2.18,1.16,3.14.36l23.11-19.11c.96-.79,1.06-2.23.23-3.15-7.45-8.29-16.43-13.16-23.54-13.31-.83-.02-1.62-.33-2.23-.88Z" style="fill: #ff6a66;"/>
          <path d="m149.56,111.19l-3.45,2.85-2.11-3.49c-.42-.7-.27-1.61.36-2.13h0c.63-.52,1.55-.5,2.16.04l3.03,2.72Z" style="fill: #c1380c;"/>
          <path d="m156.65,119.14l-5.83-6.07c-.3-.31-.79-.34-1.12-.06l-1.82,1.51c-.33.28-.4.76-.15,1.11l4.87,6.87c.28.39.83.46,1.2.16l2.79-2.3c.37-.31.4-.86.07-1.21Z" style="fill: #c1380c;"/>
        </g>
      </g>
      <g>
        <g>
          <g>
            <path d="m401.95,226.7c13.91,1.93,17.79,19.77,14.79,34.66-4.81,24.17-23.31,41.7-34.47,58.72-13.03,19.83-4.74,18.47,6.53-32.39,7.2-32.34,2.16-47.37,13.15-60.99Z" style="fill: #216d55;"/>
            <path d="m371.11,346.02c2.32-8.82,5.87-17.25,9.72-25.49,3.88-8.24,8.11-16.31,12.01-24.54,3.89-8.22,7.44-16.66,9.8-25.46,2.37-8.77,3.76-17.91,3.08-27.01" style="fill: none; stroke: #216d55; stroke-linecap: round; stroke-miterlimit: 10; stroke-width: 2px;"/>
          </g>
          <g>
            <path d="m378.66,188.92c24.22,26.47-19.91,86.36-14.14,138.19-2.62-23.58-21.28-81.6-6.36-118.43,3.85-9.63,10.32-17.7,20.5-19.76Z" style="fill: #2f8468;"/>
            <path d="m367.13,345.25c-3.87-22.45-5.28-45.31-4.41-68.07.49-11.38,1.56-22.73,3.2-34,1.65-11.27,3.83-22.47,6.7-33.49" style="fill: none; stroke: #216d55; stroke-linecap: round; stroke-miterlimit: 10; stroke-width: 2px;"/>
          </g>
          <g>
            <path d="m436.03,297.61c-5.97,17.33-42.95,15.03-58.43,40.37,4.12-6.71,19.29-39.48,43.83-44.23,5.83-2.29,11.24-.96,14.6,3.86Z" style="fill: #2f8468;"/>
            <path d="m373.13,346.45c4.94-10.84,12.31-20.51,21.18-28.43,4.48-3.92,9.34-7.4,14.49-10.38,5.16-2.96,10.59-5.47,16.27-7.27" style="fill: none; stroke: #216d55; stroke-linecap: round; stroke-miterlimit: 10; stroke-width: 2px;"/>
          </g>
          <g>
            <path d="m318.96,270.96c5.55-1.86,11,.4,15.43,4.11,18.28,15.11,21.66,50.24,24.67,61.6-7.8-29.54-44.41-46.19-40.1-65.71Z" style="fill: #216d55;"/>
            <path d="m361.23,346.65c-2.22-12.51-6.34-24.67-11.99-36.05-5.74-11.33-12.99-21.92-21.67-31.2" style="fill: none; stroke: #216d55; stroke-linecap: round; stroke-miterlimit: 10; stroke-width: 2px;"/>
          </g>
        </g>
        <path d="m386.89,457.59h-34.95c-8.71,0-15.9-6.81-16.37-15.51l-5.2-96.28c-.24-4.5,3.34-8.29,7.86-8.29h62.38c4.51,0,8.1,3.79,7.86,8.29l-5.2,96.28c-.47,8.7-7.66,15.51-16.37,15.51Z" style="fill: #8e3948;"/>
      </g>
      <g>
        <path d="m322.38,60.97h-52.06c-4.66,0-8.44,3.78-8.44,8.44v46.45l4.77-6.88c2.29-3.31,6.06-5.28,10.08-5.28h45.64c4.66,0,8.44-3.78,8.44-8.44v-25.86c0-4.66-3.78-8.44-8.44-8.44Z" style="fill: #463840;"/>
        <g>
          <path d="m291.71,94.92l5.98-24.76h3.29l-5.99,24.76h-3.28Z" style="fill: #78cfd8;"/>
          <g>
            <path d="m286.29,89.72l-8.02-5.16v-4.09l8.02-5.11v3.85l-5.54,3.3,5.54,3.4v3.81Z" style="fill: #78cfd8;"/>
            <path d="m306.39,89.72v-3.85l5.54-3.3-5.54-3.4v-3.81l8.03,5.12v4.1l-8.03,5.14Z" style="fill: #78cfd8;"/>
          </g>
        </g>
      </g>
    </g>
  </g>
</svg>